<?xml version="1.0" encoding="UTF-8"?>
<!DOCTYPE svg PUBLIC "-//W3C//DTD SVG 1.1//EN" "http://www.w3.org/Graphics/SVG/1.1/DTD/svg11.dtd">
<!-- Creator: CorelDRAW 2020 (64-Bit Evaluation Version) -->
<svg xmlns="http://www.w3.org/2000/svg" xml:space="preserve" width="42.3332mm" height="42.3332mm" version="1.1" style="shape-rendering:geometricPrecision; text-rendering:geometricPrecision; image-rendering:optimizeQuality; fill-rule:evenodd; clip-rule:evenodd"
viewBox="0 0 4233.32 4233.32"
 xmlns:xlink="http://www.w3.org/1999/xlink"
 xmlns:xodm="http://www.corel.com/coreldraw/odm/2003">
 <defs>
  <style type="text/css">
   <![CDATA[
    .str0 {stroke:#D7B667;stroke-width:20;stroke-miterlimit:22.9256}
    .fil0 {fill:#D7B667}
   ]]>
  </style>
 </defs>
 <g id="Layer_x0020_1">
  <metadata id="CorelCorpID_0Corel-Layer"/>
  <g id="_2612593379536">
   <path class="fil0 str0" d="M1871.08 1065.15c0,0 196.37,97.49 408.27,-39.08 0,0 253.36,-131.85 345.65,-179.89 0,0 377.67,-208.14 574.51,-31.07 167.4,119.76 16.95,428.18 -30.09,573.58l-103.59 233.56c0,0 80.08,-422.86 28.28,-548.12 0,0 -73.46,-174.24 -360.72,-113.02 -247.21,63.88 -508.45,268.12 -735.08,206.73 0,0 -64.04,-17.89 -127.23,-102.69z"/>
   <path class="fil0 str0" d="M2178.2 906.03c0,0 -143.15,-22.61 -342.82,-162 -731.19,-439.63 -1016.35,179.67 -677.18,820.33 0,0 188.37,416.29 216.62,519.89 73.93,468.16 -276.14,1371.96 267.48,1672.65 0,0 -218.49,-272.18 -146.92,-833.5 0,0 111.14,-623.49 101.72,-785.48 -6.89,-320.51 -389.13,-1071.04 -106.41,-1252.61 0,0 129.96,-84.77 391.79,5.65 0,0 237.34,56.51 295.72,15.07z"/>
   <path class="fil0 str0" d="M2483.36 2686.06c-66.31,-106.94 -160.53,-500.56 -305.15,-299.5 0,0 -248.63,425.69 -357.88,915.43 0,0 120.55,-698.83 282.54,-1019.05 0,0 137.51,-301.37 241.11,-94.18 0,0 120.55,316.45 139.38,497.3z"/>
  </g>
 </g>
</svg>
